{"asset":{"generator":"Khronos glTF Blender I/O v5.2.40","version":"2.0"},"extensionsUsed":["EXT_texture_webp"],"extensionsRequired":["EXT_texture_webp"],"scene":0,"scenes":[{"name":"Scene","nodes":[0,1]}],"nodes":[{"mesh":0,"name":"bell","translation":[0.4615035951137543,0.7156366109848022,0.015180266462266445]},{"mesh":1,"name":"post"}],"materials":[{"name":"bell_pbr_material.001","pbrMetallicRoughness":{"baseColorTexture":{"index":0},"metallicRoughnessTexture":{"index":1}}},{"name":"post_pbr_material","pbrMetallicRoughness":{"baseColorTexture":{"index":2},"metallicRoughnessTexture":{"index":3}}}],"meshes":[{"name":"Mesh_0","primitives":[{"attributes":{"POSITION":0,"NORMAL":1,"TEXCOORD_0":2},"indices":3,"material":0}]},{"name":"Mesh_0.005","primitives":[{"attributes":{"POSITION":4,"NORMAL":5,"TEXCOORD_0":6},"indices":7,"material":1}]}],"textures":[{"extensions":{"EXT_texture_webp":{"source":0}},"sampler":0},{"extensions":{"EXT_texture_webp":{"source":1}},"sampler":0},{"extensions":{"EXT_texture_webp":{"source":0}},"sampler":0},{"extensions":{"EXT_texture_webp":{"source":1}},"sampler":0}],"images":[{"mimeType":"image/webp","name":"Image_1","uri":"Image_1.webp?v=68e58c1545"},{"mimeType":"image/webp","name":"Image_0","uri":"Image_0.webp?v=671dc1e299"}],"accessors":[{"bufferView":0,"componentType":5126,"count":3149,"max":[0.11740836501121521,0,0.12375907599925995],"min":[-0.11740836501121521,-0.41999998688697815,-0.12375907599925995],"type":"VEC3"},{"bufferView":1,"componentType":5126,"count":3149,"type":"VEC3"},{"bufferView":2,"componentType":5126,"count":3149,"type":"VEC2"},{"bufferView":3,"componentType":5123,"count":12000,"type":"SCALAR"},{"bufferView":4,"componentType":5126,"count":4593,"max":[0.5498039722442627,1,0.3334706127643585],"min":[-0.43345844745635986,0,-0.2042790651321411],"type":"VEC3"},{"bufferView":5,"componentType":5126,"count":4593,"type":"VEC3"},{"bufferView":6,"componentType":5126,"count":4593,"type":"VEC2"},{"bufferView":7,"componentType":5123,"count":15000,"type":"SCALAR"}],"bufferViews":[{"buffer":0,"byteLength":37788,"byteOffset":0,"target":34962},{"buffer":0,"byteLength":37788,"byteOffset":37788,"target":34962},{"buffer":0,"byteLength":25192,"byteOffset":75576,"target":34962},{"buffer":0,"byteLength":24000,"byteOffset":100768,"target":34963},{"buffer":0,"byteLength":55116,"byteOffset":124768,"target":34962},{"buffer":0,"byteLength":55116,"byteOffset":179884,"target":34962},{"buffer":0,"byteLength":36744,"byteOffset":235000,"target":34962},{"buffer":0,"byteLength":30000,"byteOffset":271744,"target":34963}],"samplers":[{"magFilter":9729,"minFilter":9987}],"buffers":[{"byteLength":301744,"uri":"bell.bin?v=861f735ec7"}]}